<?xml version="1.0" standalone="no"?>
<!DOCTYPE svg PUBLIC "-//W3C//DTD SVG 20010904//EN"
 "http://www.w3.org/TR/2001/REC-SVG-20010904/DTD/svg10.dtd">
<svg version="1.0" xmlns="http://www.w3.org/2000/svg"
 width="303.000000pt" height="303.000000pt" viewBox="0 0 303.000000 303.000000"
 preserveAspectRatio="xMidYMid meet">
<metadata>
Created by potrace 1.11, written by Peter Selinger 2001-2013
</metadata>
<g transform="translate(0.000000,303.000000) scale(0.100000,-0.100000)"
fill="#000000" stroke="none">
<path d="M1661 2863 c-25 -7 -66 -24 -93 -38 -44 -23 -53 -25 -91 -14 -72 20
-222 15 -307 -10 -94 -28 -197 -88 -264 -154 -33 -33 -61 -51 -81 -54 -107
-12 -210 -85 -259 -182 -13 -25 -38 -56 -55 -69 -48 -35 -107 -116 -130 -178
-27 -70 -29 -84 -30 -160 -1 -58 -3 -63 -46 -110 -143 -154 -199 -260 -209
-393 -3 -41 -13 -71 -36 -107 -43 -69 -58 -128 -55 -204 6 -110 23 -154 86
-218 40 -40 41 -42 29 -78 -32 -97 2 -206 90 -293 41 -40 48 -53 54 -98 9 -73
37 -132 83 -179 59 -60 104 -78 193 -79 69 0 79 -3 119 -33 123 -90 318 -73
447 40 30 26 39 30 52 20 141 -102 369 -47 561 133 113 106 155 200 161 363 0
7 5 10 10 7 16 -10 117 -8 136 3 12 7 33 2 73 -15 110 -49 256 -19 353 73 32
30 40 33 63 24 28 -11 39 -9 122 13 28 8 54 13 56 10 3 -2 37 -7 75 -10 64 -5
75 -3 114 20 50 30 69 51 99 108 38 75 22 139 -33 139 -11 0 -33 7 -51 16
l-31 17 25 21 c74 64 121 177 108 261 -6 36 -4 66 8 104 11 40 14 78 10 138
-6 92 -28 141 -72 161 -14 6 -24 15 -23 19 4 21 -17 66 -42 86 -39 33 -46 62
-22 87 61 66 35 242 -56 381 -60 91 -123 150 -241 228 -92 60 -177 90 -224 77
-14 -3 -38 6 -72 28 -59 40 -111 49 -173 31 -43 -13 -46 -13 -80 13 -67 51
-129 70 -222 69 -47 0 -105 -6 -129 -14z"/>
</g>
</svg>
